<svg xmlns="http://www.w3.org/2000/svg" viewBox="0 0 400 400" width="400" height="400">
  <defs><radialGradient id="bg" cx="50%" cy="35%" r="70%"><stop offset="0" stop-color="#1a1a1a"/><stop offset="1" stop-color="#000"/></radialGradient></defs>
  <rect width="400" height="400" fill="url(#bg)"/>
  <circle cx="200" cy="215" r="150" fill="#0c0c0c" stroke="#d4a32c" stroke-width="6"/>
  <!-- shoulders / jersey -->
  <path d="M60 400 Q200 290 340 400 Z" fill="#d4a32c"/>
  <path d="M120 400 Q200 330 280 400 Z" fill="#111"/>
  <text x="200" y="392" text-anchor="middle" font-family="Barlow Condensed, Impact, sans-serif" font-style="italic" font-weight="800" font-size="26" fill="#d4a32c">CHIEFS</text>
  <!-- neck + head -->
  <rect x="172" y="245" width="56" height="50" rx="14" fill="#e4b98a"/>
  <ellipse cx="200" cy="200" rx="88" ry="100" fill="#f0c9a0"/>
  <!-- hair -->
  <path d="M116 196 Q118 96 200 96 Q282 96 284 196 L268 160 Q248 128 200 130 Q152 128 132 160 Z" fill="#1c1c1c"/><path d="M96 150 q30 -60 104 -60 q74 0 104 60 l-24 6 q-30 -44 -80 -44 q-50 0 -80 44 z" fill="#1c1c1c"/>
  <!-- glasses -->
  <g fill="none" stroke="#111" stroke-width="10">
    <rect x="138" y="178" width="56" height="54" rx="12"/>
    <rect x="206" y="178" width="56" height="54" rx="12"/>
    <line x1="138" y1="200" x2="114" y2="192"/>
    <line x1="262" y1="200" x2="286" y2="192"/>
  </g>
  <rect x="190" y="196" width="20" height="14" rx="3" fill="#fff" transform="rotate(24 200 203)"/>
  <rect x="190" y="196" width="20" height="14" rx="3" fill="#fff" opacity=".85" transform="rotate(-24 200 203)"/>
  <!-- eyes -->
  <circle cx="166" cy="205" r="7" fill="#111"/><circle cx="234" cy="205" r="7" fill="#111"/>
  <!-- nose + grin -->
  <path d="M200 215 q-8 22 6 26" fill="none" stroke="#c98a5a" stroke-width="5" stroke-linecap="round"/>
  <path d="M158 262 q42 34 84 0" fill="none" stroke="#7a3b2a" stroke-width="7" stroke-linecap="round"/>
  <rect x="150" y="250" width="100" height="6" rx="3" fill="#7a3b2a"/>
</svg>